<svg data-v-423bf9ae="" xmlns="http://www.w3.org/2000/svg" viewBox="0 0 780 90" class="iconLeft"><!----><!----><!----><g data-v-423bf9ae="" id="496d5ba5-5b33-4396-bba7-c8d358834482" fill="black" transform="matrix(5.571030403879727,0,0,5.571030403879727,128.04917961881472,14.999998092651367)"><path d="M11.07 0.71L11.07 2.52L10.15 2.52L10.15 10.50L7.14 10.50L3.57 5.17L3.57 8.69L4.65 8.69L4.65 10.50L0.35 10.50L0.35 8.69L1.18 8.69L1.18 2.52L0.36 2.52L0.36 0.71L4.38 0.71L7.83 5.85L7.81 2.52L6.86 2.52L6.86 0.71L11.07 0.71ZM15.69 8.67L15.69 10.50L11.77 10.50L11.77 8.67L12.36 8.67L12.36 5.32L11.77 5.32L11.77 3.50L15.02 3.50L15.02 8.67L15.69 8.67ZM12.17 1.46L12.17 1.46L12.17 1.46Q12.17 1.22 12.26 0.97L12.26 0.97L12.26 0.97Q12.36 0.71 12.55 0.50L12.55 0.50L12.55 0.50Q12.74 0.29 13.03 0.16L13.03 0.16L13.03 0.16Q13.31 0.03 13.68 0.03L13.68 0.03L13.68 0.03Q14.04 0.03 14.33 0.16L14.33 0.16L14.33 0.16Q14.62 0.29 14.81 0.50L14.81 0.50L14.81 0.50Q15.01 0.71 15.11 0.97L15.11 0.97L15.11 0.97Q15.22 1.22 15.22 1.46L15.22 1.46L15.22 1.46Q15.22 2.04 14.83 2.46L14.83 2.46L14.83 2.46Q14.43 2.87 13.68 2.87L13.68 2.87L13.68 2.87Q13.34 2.87 13.07 2.74L13.07 2.74L13.07 2.74Q12.80 2.62 12.59 2.41L12.59 2.41L12.59 2.41Q12.39 2.21 12.28 1.96L12.28 1.96L12.28 1.96Q12.17 1.71 12.17 1.46ZM21.08 6.66L21.08 6.66L21.08 6.66Q21.07 6.41 21.02 6.15L21.02 6.15L21.02 6.15Q20.97 5.89 20.87 5.68L20.87 5.68L20.87 5.68Q20.78 5.46 20.61 5.33L20.61 5.33L20.61 5.33Q20.44 5.19 20.20 5.19L20.20 5.19L20.20 5.19Q19.89 5.19 19.66 5.35L19.66 5.35L19.66 5.35Q19.43 5.50 19.28 5.75L19.28 5.75L19.28 5.75Q19.12 6.01 19.05 6.33L19.05 6.33L19.05 6.33Q18.97 6.65 18.97 6.99L18.97 6.99L18.97 6.99Q18.97 7.67 19.36 8.15L19.36 8.15L19.36 8.15Q19.74 8.62 20.41 8.64L20.41 8.64L20.41 8.64Q20.97 8.65 21.36 8.44L21.36 8.44L21.36 8.44Q21.76 8.22 22.11 7.84L22.11 7.84L23.34 9.27L23.34 9.27Q23.09 9.53 22.74 9.79L22.74 9.79L22.74 9.79Q22.39 10.05 21.95 10.25L21.95 10.25L21.95 10.25Q21.50 10.44 20.99 10.57L20.99 10.57L20.99 10.57Q20.47 10.70 19.91 10.70L19.91 10.70L19.91 10.70Q19.14 10.70 18.44 10.46L18.44 10.46L18.44 10.46Q17.74 10.23 17.21 9.77L17.21 9.77L17.21 9.77Q16.69 9.30 16.37 8.60L16.37 8.60L16.37 8.60Q16.06 7.90 16.06 6.96L16.06 6.96L16.06 6.96Q16.06 6.03 16.34 5.35L16.34 5.35L16.34 5.35Q16.63 4.68 17.11 4.23L17.11 4.23L17.11 4.23Q17.58 3.79 18.21 3.58L18.21 3.58L18.21 3.58Q18.83 3.37 19.50 3.37L19.50 3.37L19.50 3.37Q19.85 3.37 20.14 3.46L20.14 3.46L20.14 3.46Q20.43 3.54 20.64 3.67L20.64 3.67L20.64 3.67Q20.86 3.79 21.01 3.93L21.01 3.93L21.01 3.93Q21.17 4.07 21.25 4.17L21.25 4.17L21.49 3.50L23.14 3.50L23.14 6.66L21.08 6.66ZM28.22 8.67L28.22 10.50L23.83 10.50L23.83 8.67L24.42 8.67L24.42 1.82L23.83 1.82L23.83 0L27.22 0L27.22 4.37L27.22 4.37Q27.27 4.27 27.48 4.09L27.48 4.09L27.48 4.09Q27.69 3.91 27.99 3.72L27.99 3.72L27.99 3.72Q28.29 3.53 28.67 3.39L28.67 3.39L28.67 3.39Q29.04 3.25 29.41 3.25L29.41 3.25L29.41 3.25Q30.23 3.25 30.71 3.52L30.71 3.52L30.71 3.52Q31.19 3.79 31.45 4.23L31.45 4.23L31.45 4.23Q31.71 4.68 31.79 5.23L31.79 5.23L31.79 5.23Q31.86 5.78 31.86 6.33L31.86 6.33L31.86 8.67L32.52 8.67L32.52 10.50L28.92 10.50L28.92 6.69L28.92 6.69Q28.92 6.51 28.91 6.29L28.91 6.29L28.91 6.29Q28.90 6.06 28.82 5.87L28.82 5.87L28.82 5.87Q28.74 5.67 28.57 5.53L28.57 5.53L28.57 5.53Q28.41 5.39 28.10 5.39L28.10 5.39L28.10 5.39Q27.83 5.39 27.66 5.51L27.66 5.51L27.66 5.51Q27.48 5.63 27.38 5.82L27.38 5.82L27.38 5.82Q27.29 6.01 27.25 6.24L27.25 6.24L27.25 6.24Q27.22 6.47 27.22 6.69L27.22 6.69L27.22 8.67L28.22 8.67ZM36.79 10.68L36.79 10.68L36.79 10.68Q36.04 10.68 35.33 10.45L35.33 10.45L35.33 10.45Q34.62 10.22 34.08 9.76L34.08 9.76L34.08 9.76Q33.53 9.30 33.20 8.60L33.20 8.60L33.20 8.60Q32.87 7.90 32.89 6.97L32.89 6.97L32.89 6.97Q32.89 6.09 33.21 5.41L33.21 5.41L33.21 5.41Q33.54 4.73 34.08 4.27L34.08 4.27L34.08 4.27Q34.62 3.81 35.31 3.57L35.31 3.57L35.31 3.57Q35.99 3.33 36.72 3.33L36.72 3.33L36.72 3.33Q37.55 3.35 38.25 3.59L38.25 3.59L38.25 3.59Q38.96 3.84 39.48 4.31L39.48 4.31L39.48 4.31Q40.00 4.79 40.30 5.47L40.30 5.47L40.30 5.47Q40.60 6.15 40.61 7.03L40.61 7.03L40.61 7.03Q40.63 7.90 40.33 8.57L40.33 8.57L40.33 8.57Q40.03 9.25 39.51 9.72L39.51 9.72L39.51 9.72Q38.99 10.19 38.29 10.44L38.29 10.44L38.29 10.44Q37.59 10.68 36.79 10.68ZM36.79 8.89L36.79 8.89L36.79 8.89Q37.02 8.89 37.19 8.75L37.19 8.75L37.19 8.75Q37.37 8.61 37.49 8.36L37.49 8.36L37.49 8.36Q37.62 8.11 37.68 7.76L37.68 7.76L37.68 7.76Q37.74 7.42 37.74 7.03L37.74 7.03L37.74 7.03Q37.74 6.23 37.48 5.70L37.48 5.70L37.48 5.70Q37.21 5.17 36.72 5.15L36.72 5.15L36.72 5.15Q36.51 5.15 36.34 5.29L36.34 5.29L36.34 5.29Q36.16 5.43 36.04 5.68L36.04 5.68L36.04 5.68Q35.91 5.94 35.83 6.27L35.83 6.27L35.83 6.27Q35.76 6.61 35.76 6.99L35.76 6.99L35.76 6.99Q35.76 7.85 36.05 8.37L36.05 8.37L36.05 8.37Q36.34 8.89 36.79 8.89ZM45.21 8.67L45.21 10.50L41.12 10.50L41.12 8.67L41.72 8.67L41.72 1.81L41.13 1.81L41.13 0L44.38 0L44.38 8.67L45.21 8.67ZM46.51 5.71L45.92 4.09L45.92 4.09Q46.13 3.96 46.45 3.79L46.45 3.79L46.45 3.79Q46.77 3.63 47.17 3.46L47.17 3.46L47.17 3.46Q47.57 3.30 48.03 3.20L48.03 3.20L48.03 3.20Q48.48 3.09 48.97 3.09L48.97 3.09L48.97 3.09Q49.60 3.09 50.27 3.23L50.27 3.23L50.27 3.23Q50.95 3.36 51.50 3.69L51.50 3.69L51.50 3.69Q52.05 4.02 52.41 4.58L52.41 4.58L52.41 4.58Q52.77 5.14 52.77 5.98L52.77 5.98L52.77 8.71L53.61 8.71L53.61 10.50L50.61 10.50L50.27 9.87L50.27 9.87Q50.08 10.14 49.83 10.31L49.83 10.31L49.83 10.31Q49.59 10.49 49.33 10.58L49.33 10.58L49.33 10.58Q49.07 10.68 48.82 10.72L48.82 10.72L48.82 10.72Q48.57 10.77 48.38 10.77L48.38 10.77L48.38 10.77Q47.88 10.77 47.39 10.63L47.39 10.63L47.39 10.63Q46.90 10.49 46.51 10.21L46.51 10.21L46.51 10.21Q46.12 9.93 45.87 9.48L45.87 9.48L45.87 9.48Q45.63 9.04 45.63 8.43L45.63 8.43L45.63 8.43Q45.63 7.84 45.86 7.36L45.86 7.36L45.86 7.36Q46.09 6.89 46.49 6.55L46.49 6.55L46.49 6.55Q46.89 6.22 47.42 6.03L47.42 6.03L47.42 6.03Q47.95 5.85 48.54 5.85L48.54 5.85L48.54 5.85Q48.85 5.85 49.09 5.92L49.09 5.92L49.09 5.92Q49.34 5.98 49.51 6.06L49.51 6.06L49.51 6.06Q49.69 6.15 49.79 6.23L49.79 6.23L49.79 6.23Q49.90 6.31 49.92 6.34L49.92 6.34L49.92 5.85L49.92 5.85Q49.92 5.38 49.55 5.22L49.55 5.22L49.55 5.22Q49.17 5.07 48.59 5.07L48.59 5.07L48.59 5.07Q47.96 5.07 47.44 5.28L47.44 5.28L47.44 5.28Q46.91 5.49 46.51 5.71L46.51 5.71ZM49.03 8.95L49.03 8.95L49.03 8.95Q49.35 8.95 49.59 8.79L49.59 8.79L49.59 8.79Q49.83 8.64 49.92 8.48L49.92 8.48L49.92 7.95L49.92 7.95Q49.91 7.92 49.86 7.86L49.86 7.86L49.86 7.86Q49.81 7.80 49.71 7.73L49.71 7.73L49.71 7.73Q49.62 7.66 49.47 7.60L49.47 7.60L49.47 7.60Q49.32 7.55 49.10 7.55L49.10 7.55L49.10 7.55Q48.68 7.55 48.48 7.76L48.48 7.76L48.48 7.76Q48.29 7.97 48.29 8.29L48.29 8.29L48.29 8.29Q48.29 8.58 48.50 8.76L48.50 8.76L48.50 8.76Q48.71 8.95 49.03 8.95ZM55.78 10.50L54.03 10.50L54.03 7.98L55.90 7.98L55.90 7.98Q55.90 8.26 56.08 8.44L56.08 8.44L56.08 8.44Q56.25 8.62 56.49 8.73L56.49 8.73L56.49 8.73Q56.73 8.83 56.98 8.88L56.98 8.88L56.98 8.88Q57.23 8.92 57.39 8.92L57.39 8.92L57.39 8.92Q57.60 8.92 57.80 8.83L57.80 8.83L57.80 8.83Q58.00 8.74 58.00 8.44L58.00 8.44L58.00 8.44Q58.00 8.29 57.82 8.18L57.82 8.18L57.82 8.18Q57.64 8.08 57.35 7.99L57.35 7.99L57.35 7.99Q57.06 7.91 56.69 7.82L56.69 7.82L56.69 7.82Q56.32 7.73 55.94 7.60L55.94 7.60L55.94 7.60Q55.58 7.48 55.25 7.29L55.25 7.29L55.25 7.29Q54.92 7.11 54.66 6.85L54.66 6.85L54.66 6.85Q54.39 6.58 54.24 6.22L54.24 6.22L54.24 6.22Q54.08 5.85 54.08 5.36L54.08 5.36L54.08 5.36Q54.08 4.83 54.33 4.45L54.33 4.45L54.33 4.45Q54.57 4.06 54.94 3.81L54.94 3.81L54.94 3.81Q55.31 3.57 55.74 3.45L55.74 3.45L55.74 3.45Q56.17 3.33 56.55 3.33L56.55 3.33L56.55 3.33Q57.26 3.33 57.83 3.65L57.83 3.65L57.83 3.65Q58.41 3.98 58.63 4.42L58.63 4.42L58.74 3.50L60.47 3.50L60.47 6.02L58.65 6.02L58.65 6.02Q58.65 5.80 58.52 5.61L58.52 5.61L58.52 5.61Q58.39 5.42 58.19 5.27L58.19 5.27L58.19 5.27Q57.99 5.12 57.74 5.04L57.74 5.04L57.74 5.04Q57.48 4.96 57.22 4.96L57.22 4.96L57.22 4.96Q56.99 4.96 56.83 5.08L56.83 5.08L56.83 5.08Q56.67 5.19 56.67 5.46L56.67 5.46L56.67 5.46Q56.67 5.61 56.81 5.72L56.81 5.72L56.81 5.72Q56.95 5.82 57.20 5.92L57.20 5.92L57.20 5.92Q57.44 6.02 57.75 6.12L57.75 6.12L57.75 6.12Q58.06 6.22 58.39 6.33L58.39 6.33L58.39 6.33Q58.79 6.47 59.19 6.63L59.19 6.63L59.19 6.63Q59.60 6.79 59.92 7.04L59.92 7.04L59.92 7.04Q60.24 7.28 60.44 7.65L60.44 7.65L60.44 7.65Q60.65 8.02 60.65 8.57L60.65 8.57L60.65 8.57Q60.65 9.06 60.43 9.45L60.43 9.45L60.43 9.45Q60.21 9.84 59.86 10.12L59.86 10.12L59.86 10.12Q59.50 10.39 59.02 10.53L59.02 10.53L59.02 10.53Q58.55 10.67 58.04 10.67L58.04 10.67L58.04 10.67Q57.29 10.67 56.72 10.36L56.72 10.36L56.72 10.36Q56.15 10.05 55.90 9.65L55.90 9.65L55.78 10.50ZM70.31 7.36L70.38 7.36L70.38 7.36Q70.41 7.07 70.54 6.59L70.54 6.59L70.54 6.59Q70.67 6.12 70.88 5.59L70.88 5.59L72.16 2.53L71.43 2.53L71.41 0.71L75.39 0.71L75.39 2.53L74.70 2.53L71.34 10.50L68.77 10.50L65.06 2.53L64.29 2.53L64.29 0.71L69.45 0.71L69.44 2.53L68.68 2.53L69.87 5.67L69.87 5.67Q70.04 6.19 70.16 6.63L70.16 6.63L70.16 6.63Q70.28 7.07 70.31 7.36L70.31 7.36ZM78.47 10.68L78.47 10.68L78.47 10.68Q77.71 10.68 77.01 10.45L77.01 10.45L77.01 10.45Q76.30 10.22 75.75 9.76L75.75 9.76L75.75 9.76Q75.21 9.30 74.88 8.60L74.88 8.60L74.88 8.60Q74.55 7.90 74.56 6.97L74.56 6.97L74.56 6.97Q74.56 6.09 74.89 5.41L74.89 5.41L74.89 5.41Q75.22 4.73 75.76 4.27L75.76 4.27L75.76 4.27Q76.30 3.81 76.99 3.57L76.99 3.57L76.99 3.57Q77.67 3.33 78.40 3.33L78.40 3.33L78.40 3.33Q79.23 3.35 79.93 3.59L79.93 3.59L79.93 3.59Q80.64 3.84 81.16 4.31L81.16 4.31L81.16 4.31Q81.68 4.79 81.98 5.47L81.98 5.47L81.98 5.47Q82.28 6.15 82.29 7.03L82.29 7.03L82.29 7.03Q82.31 7.90 82.00 8.57L82.00 8.57L82.00 8.57Q81.70 9.25 81.19 9.72L81.19 9.72L81.19 9.72Q80.67 10.19 79.97 10.44L79.97 10.44L79.97 10.44Q79.27 10.68 78.47 10.68ZM78.47 8.89L78.47 8.89L78.47 8.89Q78.69 8.89 78.87 8.75L78.87 8.75L78.87 8.75Q79.04 8.61 79.17 8.36L79.17 8.36L79.17 8.36Q79.30 8.11 79.36 7.76L79.36 7.76L79.36 7.76Q79.42 7.42 79.42 7.03L79.42 7.03L79.42 7.03Q79.42 6.23 79.16 5.70L79.16 5.70L79.16 5.70Q78.89 5.17 78.40 5.15L78.40 5.15L78.40 5.15Q78.19 5.15 78.02 5.29L78.02 5.29L78.02 5.29Q77.84 5.43 77.71 5.68L77.71 5.68L77.71 5.68Q77.59 5.94 77.51 6.27L77.51 6.27L77.51 6.27Q77.43 6.61 77.43 6.99L77.43 6.99L77.43 6.99Q77.43 7.85 77.73 8.37L77.73 8.37L77.73 8.37Q78.02 8.89 78.47 8.89ZM88.65 8.18L89.82 9.53L89.82 9.53Q89.04 10.21 88.17 10.48L88.17 10.48L88.17 10.48Q87.30 10.75 86.21 10.75L86.21 10.75L86.21 10.75Q85.55 10.75 84.90 10.54L84.90 10.54L84.90 10.54Q84.24 10.32 83.71 9.86L83.71 9.86L83.71 9.86Q83.19 9.41 82.85 8.69L82.85 8.69L82.85 8.69Q82.52 7.97 82.52 6.96L82.52 6.96L82.52 6.96Q82.52 6.10 82.81 5.42L82.81 5.42L82.81 5.42Q83.10 4.75 83.61 4.27L83.61 4.27L83.61 4.27Q84.11 3.79 84.80 3.55L84.80 3.55L84.80 3.55Q85.48 3.30 86.28 3.30L86.28 3.30L86.28 3.30Q86.91 3.30 87.45 3.46L87.45 3.46L87.45 3.46Q87.99 3.61 88.42 3.88L88.42 3.88L88.42 3.88Q88.86 4.14 89.17 4.52L89.17 4.52L89.17 4.52Q89.47 4.90 89.63 5.33L89.63 5.33L89.63 5.33Q89.68 5.52 89.74 5.80L89.74 5.80L89.74 5.80Q89.80 6.08 89.82 6.40L89.82 6.40L89.82 6.40Q89.84 6.72 89.80 7.06L89.80 7.06L89.80 7.06Q89.77 7.41 89.66 7.70L89.66 7.70L85.25 7.70L85.25 7.70Q85.27 7.84 85.34 8.04L85.34 8.04L85.34 8.04Q85.40 8.23 85.55 8.41L85.55 8.41L85.55 8.41Q85.71 8.60 85.97 8.72L85.97 8.72L85.97 8.72Q86.24 8.85 86.69 8.85L86.69 8.85L86.69 8.85Q86.87 8.85 87.09 8.83L87.09 8.83L87.09 8.83Q87.30 8.82 87.56 8.75L87.56 8.75L87.56 8.75Q87.81 8.68 88.09 8.55L88.09 8.55L88.09 8.55Q88.37 8.41 88.65 8.18L88.65 8.18ZM86.37 5.19L86.37 5.19L86.37 5.19Q86.04 5.19 85.84 5.32L85.84 5.32L85.84 5.32Q85.64 5.45 85.52 5.62L85.52 5.62L85.52 5.62Q85.40 5.80 85.35 5.99L85.35 5.99L85.35 5.99Q85.30 6.19 85.29 6.31L85.29 6.31L87.40 6.31L87.40 6.31Q87.40 6.12 87.36 5.92L87.36 5.92L87.36 5.92Q87.32 5.71 87.21 5.55L87.21 5.55L87.21 5.55Q87.11 5.39 86.91 5.29L86.91 5.29L86.91 5.29Q86.70 5.19 86.37 5.19ZM94.47 8.67L94.47 10.50L90.38 10.50L90.38 8.67L90.99 8.67L90.99 1.81L90.40 1.81L90.40 0L93.65 0L93.65 8.67L94.47 8.67ZM98.95 10.50L95.21 10.50L95.21 8.68L95.79 8.68L95.79 1.83L95.21 1.83L95.21 0L98.45 0L98.45 6.33L100.07 5.36L99.06 5.36L99.06 3.51L102.98 3.51L102.98 5.36L101.91 5.36L100.95 5.96L102.84 8.67L103.54 8.67L103.54 10.50L99.40 10.50L99.40 8.67L99.99 8.67L98.92 7.15L98.43 7.49L98.43 8.67L98.95 8.67L98.95 10.50ZM110.04 8.18L111.22 9.53L111.22 9.53Q110.43 10.21 109.56 10.48L109.56 10.48L109.56 10.48Q108.70 10.75 107.60 10.75L107.60 10.75L107.60 10.75Q106.95 10.75 106.29 10.54L106.29 10.54L106.29 10.54Q105.63 10.32 105.10 9.86L105.10 9.86L105.10 9.86Q104.58 9.41 104.24 8.69L104.24 8.69L104.24 8.69Q103.91 7.97 103.91 6.96L103.91 6.96L103.91 6.96Q103.91 6.10 104.20 5.42L104.20 5.42L104.20 5.42Q104.50 4.75 105 4.27L105 4.27L105 4.27Q105.50 3.79 106.19 3.55L106.19 3.55L106.19 3.55Q106.88 3.30 107.67 3.30L107.67 3.30L107.67 3.30Q108.30 3.30 108.84 3.46L108.84 3.46L108.84 3.46Q109.38 3.61 109.82 3.88L109.82 3.88L109.82 3.88Q110.25 4.14 110.56 4.52L110.56 4.52L110.56 4.52Q110.87 4.90 111.02 5.33L111.02 5.33L111.02 5.33Q111.08 5.52 111.13 5.80L111.13 5.80L111.13 5.80Q111.19 6.08 111.21 6.40L111.21 6.40L111.21 6.40Q111.23 6.72 111.19 7.06L111.19 7.06L111.19 7.06Q111.16 7.41 111.05 7.70L111.05 7.70L106.64 7.70L106.64 7.70Q106.67 7.84 106.73 8.04L106.73 8.04L106.73 8.04Q106.79 8.23 106.95 8.41L106.95 8.41L106.95 8.41Q107.10 8.60 107.37 8.72L107.37 8.72L107.37 8.72Q107.63 8.85 108.08 8.85L108.08 8.85L108.08 8.85Q108.26 8.85 108.48 8.83L108.48 8.83L108.48 8.83Q108.70 8.82 108.95 8.75L108.95 8.75L108.95 8.75Q109.20 8.68 109.48 8.55L109.48 8.55L109.48 8.55Q109.76 8.41 110.04 8.18L110.04 8.18ZM107.76 5.19L107.76 5.19L107.76 5.19Q107.44 5.19 107.23 5.32L107.23 5.32L107.23 5.32Q107.03 5.45 106.91 5.62L106.91 5.62L106.91 5.62Q106.79 5.80 106.74 5.99L106.74 5.99L106.74 5.99Q106.69 6.19 106.68 6.31L106.68 6.31L108.79 6.31L108.79 6.31Q108.79 6.12 108.75 5.92L108.75 5.92L108.75 5.92Q108.71 5.71 108.60 5.55L108.60 5.55L108.60 5.55Q108.50 5.39 108.30 5.29L108.30 5.29L108.30 5.29Q108.09 5.19 107.76 5.19ZM115.74 8.67L115.74 10.50L111.78 10.50L111.78 8.67L112.39 8.67L112.39 5.32L111.79 5.32L111.79 3.50L114.42 3.50L114.84 4.40L114.84 4.40Q114.98 4.14 115.14 3.92L115.14 3.92L115.14 3.92Q115.29 3.70 115.53 3.52L115.53 3.52L115.53 3.52Q115.77 3.35 116.12 3.25L116.12 3.25L116.12 3.25Q116.47 3.15 117.01 3.15L117.01 3.15L117.01 5.67L117.01 5.67Q116.06 5.67 115.55 5.99L115.55 5.99L115.55 5.99Q115.04 6.30 115.04 7.22L115.04 7.22L115.04 8.67L115.74 8.67Z"></path></g><!----><g data-v-423bf9ae="" id="d0d8c5af-9190-4676-ae6b-a822c20d548c" transform="matrix(1.2222116426774048,0,0,1.2222116426774048,-6.110582133870238,-15.929193909375691)" stroke="none" fill="black"><path d="M69.8 55.564c2.291 0 4.091 1.8 4.091 4.091 0 2.236-1.8 4.091-4.091 4.091H53.927c-2.236 0-4.091-1.855-4.091-4.091a4.086 4.086 0 0 1 4.091-4.091H69.8zM42.745 47.109c1.582 1.582 1.582 4.2 0 5.782l-9.655 9.655c-1.582 1.582-4.145 1.582-5.782 0-1.582-1.582-1.582-4.2 0-5.782L34.073 50l-6.764-6.709c-1.582-1.636-1.582-4.2 0-5.782 1.636-1.636 4.2-1.636 5.782 0l9.654 9.6z"></path><path d="M86.818 71.327V28.673a7.31 7.31 0 0 0-7.309-7.309H20.491c-4.036 0-7.255 3.273-7.309 7.309v42.655c.055 4.036 3.273 7.309 7.309 7.309h59.018a7.31 7.31 0 0 0 7.309-7.31zM95 28.673v42.655c0 8.564-6.927 15.491-15.491 15.491H20.491C11.927 86.818 5 79.891 5 71.327V28.673c0-8.564 6.927-15.491 15.491-15.491h59.018C88.073 13.182 95 20.109 95 28.673z"></path></g><!----></svg>